<svg id="Ebene_1" data-name="Ebene 1" xmlns="http://www.w3.org/2000/svg" xmlns:xlink="http://www.w3.org/1999/xlink" viewBox="0 0 308.65 282.93"><defs><style>.cls-1{fill:none;}.cls-2{clip-path:url(#clip-path);}.cls-3{fill:#ead1c6;}</style><clipPath id="clip-path"><polyline class="cls-1" points="0 0 308.65 0 308.65 282.93 0 282.93"/></clipPath></defs><g class="cls-2"><path class="cls-3" d="M237.91,270.07a19.29,19.29,0,1,1,19.29-19.29,19.31,19.31,0,0,1-19.29,19.29m0-51.44a32.16,32.16,0,1,0,32.15,32.15,32.2,32.2,0,0,0-32.15-32.15"/></g><g class="cls-2"><path class="cls-3" d="M109.31,270.07a19.29,19.29,0,1,1,19.29-19.29,19.31,19.31,0,0,1-19.29,19.29m0-51.44a32.16,32.16,0,1,0,32.15,32.15,32.2,32.2,0,0,0-32.15-32.15"/></g><g class="cls-2"><path class="cls-3" d="M276.49,192.91H115.21a32.22,32.22,0,0,1-31.52-25.85L51.31,5.18A6.42,6.42,0,0,0,45,0H6.43a6.43,6.43,0,0,0,0,12.86H39.74L71.08,169.59a45.12,45.12,0,0,0,44.13,36.18H276.49a6.43,6.43,0,0,0,0-12.86"/></g><g class="cls-2"><path class="cls-3" d="M307.08,40.8a6.43,6.43,0,0,0-4.86-2.21H57.87a6.43,6.43,0,0,0,0,12.86H294.8l-10.39,72.91a6.45,6.45,0,0,1-5.6,5.47L76.4,154.37a6.44,6.44,0,0,0,.75,12.83,6.74,6.74,0,0,0,.77,0l202.41-24.55a19.34,19.34,0,0,0,16.77-16.42l11.48-80.26a6.41,6.41,0,0,0-1.5-5.13"/></g></svg>