<svg id="Ebene_1" data-name="Ebene 1" xmlns="http://www.w3.org/2000/svg" viewBox="0 0 31.59 29.24"><path d="M15.8,29.23a2.3,2.3,0,0,1-1.64-.76Q8.52,22.85,2.91,17.21A10.11,10.11,0,0,1,10.78,0a10.28,10.28,0,0,1,5,1.7,10.2,10.2,0,0,1,10.94-.25A10.13,10.13,0,0,1,30.1,15.4a10.34,10.34,0,0,1-1.38,1.78c-2.66,2.7-5.34,5.37-8,8l-3.28,3.27A2.33,2.33,0,0,1,15.8,29.23ZM10.12,3A7.11,7.11,0,0,0,5,15.1L15.8,25.87l2.78-2.78c2.67-2.66,5.35-5.32,8-8a6.48,6.48,0,0,0,1-1.24A7.15,7.15,0,0,0,25.19,4a7.23,7.23,0,0,0-8.42.7l-1,.84-1-.84A7.18,7.18,0,0,0,10.59,3Z"/></svg>